<svg id="svg" version="1.1" viewBox="0 0 300 300" width="300" height="300" xmlns="http://www.w3.org/2000/svg"><svg xmlns="http://www.w3.org/2000/svg"><defs><clipPath id="clip-1"><rect x="0" y="0" transform="scale(0.15,0.15)" width="2000" height="2000" fill="none"/></clipPath><linearGradient x1="233.064" y1="162.9075" x2="131.44185" y2="162.0915" gradientUnits="userSpaceOnUse" id="color-1"><stop offset="0" stop-color="#58ede3"/><stop offset="1" stop-color="#7c86f7"/></linearGradient><linearGradient x1="134.67825" y1="155.208" x2="83.72385" y2="154.2645" gradientUnits="userSpaceOnUse" id="color-2"><stop offset="0" stop-color="#7889f7"/><stop offset="1" stop-color="#8857ff"/></linearGradient></defs><g clip-path="url(#clip-1)" fill="none" fill-rule="nonzero" stroke="none" stroke-width="1" stroke-linecap="butt" stroke-linejoin="miter" stroke-miterlimit="10" stroke-dasharray="" stroke-dashoffset="0" font-family="none" font-weight="none" font-size="none" text-anchor="none" style="mix-blend-mode: normal"><path d="M150.0135,113.14245c0.8745,-0.04845 2.724,-0.30045 3.324,0.1734l-0.0735,0.2547c0.4065,0.6075 0.5085,1.9629 0.744,2.82555l-0.105,0.2658c-0.4635,0.07935 -0.243,0.1053 -0.6825,-0.0993c-0.291,-0.73305 0.1305,-1.11165 -0.192,-1.3623l-0.0105,0.27255c-0.0495,1.22715 -0.5595,3.22725 0.3825,4.1859l0.075,0.06705l0.3135,-0.0231c0.51,-0.62235 0.5205,-1.95195 0.237,-2.6643c0.306,-0.1587 0.1995,-0.08385 0.426,-0.35625c0.3495,0.3342 0.213,0.6984 0.639,1.047c0.417,-0.66495 0.9975,-1.7061 1.245,-2.44515l-0.132,-0.19935c-0.3435,0.0921 -0.4575,0.26535 -0.7185,0.5205l-0.324,-0.0822c0.585,-1.66185 1.899,-1.54815 3.336,-1.0278c2.7705,1.00335 3.2565,2.5527 2.6445,5.0463c4.887,-1.3605 20.6205,-3.32445 25.8015,-1.07025c0.7155,0.3108 1.6905,1.3269 2.178,2.01225c-0.048,0.0516 -0.096,0.10275 -0.1425,0.15495c-0.627,0.6981 -1.6275,3.39555 -1.998,3.41745c-0.2085,0.01245 -0.291,-0.04335 -0.4725,-0.12645c-0.396,-0.18165 -0.8505,-0.4278 -1.2855,-0.486c-1.9275,-0.25815 -12.0975,2.04375 -14.2125,2.83935c-1.2,0.4512 -2.3445,1.05405 -3.537,1.5288c-2.2665,0.90255 -10.7505,3.777 -12.135,5.00505c-0.258,0.2295 -0.4245,0.648 -0.5625,0.9624c-2.811,6.43755 -4.194,13.34115 -6.6489,19.896c5.1189,-0.957 9.8679,-2.2695 15.0774,-2.8245c1.4955,-0.159 6.6405,0.0975 7.4505,-0.2895c4.251,-2.03295 8.499,-3.7776 12.945,-5.34495c0.645,-2.358 2.8275,-5.45415 4.281,-7.72965c4.9575,-7.75455 9.9885,-17.42325 17.997,-22.395c1.8975,-1.1778 3.4995,-1.7889 4.8075,0.02865c1.2285,1.2852 2.4675,1.9089 2.826,4.0461c0.753,3.62985 0.7275,15.0393 -0.366,18.20775l0.1125,0.25005c1.1325,0.10965 6.3195,-0.5364 7.848,-0.64935c2.9685,-0.21915 11.181,0.8304 13.032,2.99955l0.075,0.36735c-0.9285,0.438 -1.92,-0.5706 -2.8995,-0.3639c0.195,0.32445 0.342,0.54945 0.5595,0.8583c0.0885,2.63505 1.206,1.5087 1.74,2.78235c-0.9405,1.12965 -12.2055,3.01395 -14.268,3.5091c-1.941,0.46605 -4.617,1.13835 -6.6315,1.5213c-0.8805,1.00935 -1.2585,1.21455 -1.224,2.61285c0.0435,1.785 -0.2625,2.4255 -1.1865,3.9135c0.258,0.2775 0.159,0.183 0.5295,0.3495c0.0885,0.7815 -0.2865,0.849 -0.399,1.308c-0.351,1.437 -0.0555,3.7545 -0.351,5.3835c-0.1005,0.558 -0.8385,0.249 -1.0635,0.7785c0.6045,0.3825 0.7785,0.327 1.098,0.867c-0.0105,0.9885 0.2235,2.247 -0.7065,2.709c-0.1605,0.654 0.645,0.8595 0.351,1.743c-0.228,0.843 -0.84,0.9765 -0.3945,1.8645c0.396,0.7875 -0.498,2.541 -0.477,3.3585c0.1155,4.5045 -0.966,9.105 -1.1145,13.533c-0.2985,0.1215 -0.5325,0.192 -0.8475,0.255c-0.3525,0.3435 -0.567,0.48 -0.6795,0.957c0.075,0.5415 0.0645,0.504 0.414,0.9285l0.2115,-0.0645c0.1275,-0.4425 0.2415,-0.891 0.342,-1.341l0.213,-0.048c0.1725,0.2325 0.192,0.2235 0.303,0.483c-0.1065,0.5655 -0.084,0.7545 -0.5145,1.1325c-0.5025,0.159 -0.6525,0.111 -1.1685,0.0585c-0.7845,0.369 -0.42,0.4245 -0.9345,1.026c-0.408,0.477 -1.0305,0.717 -1.446,1.245l0.021,0.378c0.24,0.1425 0.639,0.1755 0.9165,0.168c0.2535,-0.3375 0.2535,-0.4185 0.6015,-0.615l0.147,0.1305l-0.1065,0.222c-0.6255,1.3395 0.3285,1.8975 -0.2085,2.331c-0.549,-0.2685 -0.765,-0.507 -1.23,-0.918c-0.0315,0.6465 0.405,0.933 0.867,1.2735c1.1475,0.747 0.603,3.165 0.693,4.2855c0.747,1.413 -0.5745,9.3 -2.0805,10.3725c-0.525,0.375 -3.117,0.084 -3.6885,0.5655c0.1515,0.666 1.044,1.05 1.101,1.743c-1.0815,0.87 -2.655,-0.6255 -3.21,-1.497c-2.9655,-4.6725 -3.09,-10.3335 -3.4485,-15.6945c-0.627,-9.4005 1.3995,-18.774 2.352,-28.095c0.1755,-1.704 0.429,-3.63 0.699,-5.3175c0.516,-3.234 1.8075,-6.5805 2.301,-9.7965l-0.1035,-0.123c-2.967,0.6375 -8.3745,1.53 -11.319,2.4945c-0.7785,0.852 -1.6365,3.975 -1.953,4.839c-2.187,5.976 -4.467,11.7735 -7.0395,17.5875c-0.6915,1.8465 -1.0635,3.534 -1.833,5.3745c-0.756,1.812 -2.0475,1.857 -3.8235,1.419c-0.423,-0.105 -2.202,-0.9705 -2.241,-1.461c-0.114,-1.464 0.171,-3.2805 0.438,-4.74c0.3945,-1.65 1.638,-3.486 2.118,-5.0775c0.897,-2.967 1.623,-6.0555 2.5515,-8.9985c0.7395,-2.3415 1.8585,-5.184 2.8515,-7.4325c-3.7575,0.6675 -5.937,-1.374 -9.444,-2.1195c-0.981,-0.2085 -0.6495,-1.02 -1.3755,-1.3275c-1.0155,0.3675 -0.915,1.5675 -1.5045,2.385c-0.39,0.5415 -1.4715,1.2585 -2.0505,1.617c-3.2535,2.016 -6.756,3.129 -10.2285,4.662c-1.5,0.663 -2.733,1.632 -4.218,2.403c-1.3713,0.714 -3.39495,1.2435 -4.44435,2.4495c-0.2055,0.2355 -0.29835,0.9435 -0.30195,1.257c-0.03615,3.198 -0.03255,6.3615 -0.1611,9.5595l-0.42975,11.712c-0.04875,1.503 -0.5469,8.043 0.55935,8.8065l0.60105,-0.252c4.27575,-1.776 13.10475,-14.2785 17.33775,-17.5455c0.858,-0.6615 1.698,-1.9005 2.6925,-2.487l-0.012,0.363l-0.1275,-0.261c-0.366,0.2925 0.1635,0.264 0.0105,0.534c-1.1355,2.007 -1.5345,4.146 -2.127,6.333c-0.1875,0.5865 -0.7365,1.257 -0.93,1.809c-1.935,5.5545 -6.588,10.149 -10.608,14.31c-1.2945,0.8685 -3.5799,2.805 -4.87905,3.348c-6.03285,2.523 -10.4181,2.3745 -12.87465,-4.7445c-0.3099,-0.9735 -0.444,-1.5165 -0.63855,-2.52c-1.33545,-7.3935 -0.0618,-24.915 2.2371,-31.944c-1.2393,-0.7245 -1.7328,-1.2615 -2.26995,-2.568c-0.43425,-0.609 -1.0017,-2.244 -1.27545,-2.9835c0.78615,-0.2655 1.3968,-0.5235 2.22495,-0.573c0.3051,-0.069 2.091,-0.1845 2.18655,-0.4245c1.02405,-2.574 1.20435,-6.012 2.01405,-8.6661c1.11,-3.63975 3.20145,-7.2441 3.6369,-11.1039c-2.59635,0.8799 -5.21655,1.7034 -7.839,0.7965c-0.41175,-0.1254 -0.77505,-0.2961 -1.17165,-0.4644l-0.534,-0.51405c-0.5871,1.02015 -1.09935,1.6332 -1.66155,2.7816c-0.5301,1.11345 -0.9999,2.5794 -1.54395,3.65235c-2.04345,4.03005 -12.3303,14.397 -17.0331,11.817c-0.8049,-0.4485 -1.3902,-1.2075 -1.6188,-2.1c-0.15225,-0.615 -0.13785,-1.2585 0.04155,-1.866c0.73935,-2.5458 4.66485,-7.38765 6.50955,-9.51585c1.9062,-1.6425 3.0699,-2.92035 4.62195,-4.90575c3.41625,-4.3701 6.07875,-8.81175 8.9706,-13.50225c0.1125,-0.66495 0.43455,-1.15755 0.59145,-1.93635c0.0969,-0.01575 0.17775,-0.0837 0.2637,-0.13095c-0.82065,-1.7763 1.9488,-3.3711 -0.33255,-5.01555c-0.1533,-0.11055 -0.14595,-1.1652 0.0231,-1.49175c0.47055,-0.0369 0.4671,-0.01215 0.88485,-0.21255l0.06495,-0.219l-0.5313,-0.40995l-0.01515,-0.2436c0.354,-0.051 0.8061,0.1707 1.25115,0.2688l0.13095,-0.33615c0.7632,-0.2097 0.81795,-0.01245 1.6623,0.1965l0.1197,-0.1932l-0.2244,-0.56145c2.98185,2.1258 5.66565,9.60345 3.6645,12.87135c-0.90495,0.129 -0.52965,-0.27165 -1.2483,0.1167l-0.0852,0.2847c0.61485,0.5352 0.58875,0.1503 1.2879,1.0152c1.35435,-0.51705 2.68875,-1.02735 4.0635,-1.4928c1.10325,-0.37365 2.4603,-0.6291 3.52545,-1.0062c0.5379,-2.44725 1.45905,-3.17085 0.4389,-5.2602c0.4125,-1.86885 0.99375,-3.6966 1.7364,-5.4606c0.42975,-0.31905 0.90495,-0.69225 1.3581,-0.96765zM204.039,201.624c0.0825,0.5205 -0.1305,1.4925 0.3285,1.8375c0.264,-0.8655 0.099,-1.1415 0.2355,-2.076l0.0225,-0.153c0.006,-0.828 -0.0105,-1.428 0.1365,-2.2545l-0.0345,-1.3515c0.234,-1.1805 0.3465,-1.98 -0.858,-2.598c-0.558,0.6015 -0.1035,1.824 0.1695,2.5395c-0.546,1.4265 -0.0285,2.538 0,4.056zM192.237,141.93075c1.9725,-0.3072 8.745,-1.84335 10.338,-2.6922c0.1395,-0.28845 0.2685,-0.58215 0.3855,-0.88035c1.2645,-3.2427 2.136,-7.4991 3.1245,-10.8771c0.447,-1.5264 0.5355,-7.4043 -0.0885,-8.8578c-1.5705,-0.3633 -6.852,8.3775 -7.5045,10.14765l-0.12,0.2262c-0.7725,0.92325 -1.3125,1.5345 -1.7055,2.70735l-0.2175,0.87615c-0.177,1.47765 -1.095,3.4656 -2.0715,4.63425c-0.1275,1.9482 -0.7845,3.22545 -2.1405,4.71585zM205.059,187.3485c0.0855,0.5355 0.1215,1.2555 0.453,1.6425c0.3075,-1.041 0.9975,-2.7555 0.627,-3.675c-0.4425,-0.3345 -0.543,-0.4095 -1.197,-0.339c0.4065,1.152 1.287,0.162 0.117,2.3715zM141.7854,187.998c0.05835,0.9135 0.3432,1.7415 0.5661,2.631l0.25245,0.222c0.0027,-0.6555 -0.22905,-2.1105 -0.537,-2.67zM142.62375,176.4495c0.0072,-0.555 0.14925,-2.25 -0.05685,-2.589l-0.2274,-0.1125c0.03585,0.615 -0.04575,2.397 0.1167,2.7195zM212.6775,123.234c0.0345,-0.52875 0.024,-1.99185 -0.2955,-2.41605c-0.318,0.9474 -0.2055,1.5282 0.2955,2.41605zM204.762,181.7535c-0.2775,0.459 -0.732,1.047 -0.7095,1.545l0.2655,0.1275c0.2475,-0.5175 0.6795,-1.1445 0.5685,-1.5885zM150.018,120.37605c-0.075,-0.55215 -0.1017,-1.5687 -0.39825,-1.90305c-0.06915,0.6342 -0.1743,1.0209 0.04785,1.60395zM141.82395,184.9365c-0.07215,0.6645 -0.1791,1.134 -0.01005,1.7775l0.2475,0.246c0.00315,-0.4965 0.09435,-1.686 -0.23745,-2.0235zM206.4465,169.6215c0.534,-0.2715 0.8235,-0.297 1.0755,-0.7245l-0.0675,-0.129c-0.468,0.198 -0.918,0.2865 -1.143,0.651zM147.8658,147.12765c-0.6858,0.6567 -1.356,1.25415 -0.8406,2.247l0.22695,0.1353c-0.05595,-1.1715 0.0795,-1.15785 0.74355,-2.16435l-0.03765,-0.2085l-0.0777,0.17535zM151.8495,161.037c-0.9225,0.183 -1.7775,0.3855 -2.48865,1.0365c0.1392,0.18 0.0624,0.129 0.1977,0.195c1.01595,-0.189 1.63095,-0.5175 2.44095,-1.164c-0.1365,-0.078 -0.0945,-0.075 -0.15,-0.0675zM152.3475,133.77975c-0.726,0.95655 -0.897,2.30295 -1.089,3.47385c0.063,0.15495 0.066,0.231 0.1725,0.3324c0.243,-0.5793 1.101,-3.34755 0.9165,-3.80625zM150.1365,140.56875c-0.99615,0.34515 -0.4398,-0.09885 -1.05585,0.12c0.5076,0.2199 0.63585,0.15855 0.8067,0.53355c-0.2235,0.7905 -0.7647,1.6077 -1.29135,2.23365l0.0378,0.2355c0.85665,-0.52575 1.8687,-2.05515 1.6842,-3.07635zM157.2555,117.0246c-0.534,0.15495 -0.8805,0.1878 -1.2405,0.6036c-0.0825,0.6414 0.264,0.74145 0.786,1.01805c0.486,-0.30675 0.6915,-0.92505 0.66,-1.4946z" fill="url(#color-1)"/><path d="M204.039,197.568c0.4425,0.129 0.276,0.144 0.6885,0.0585l0.0345,1.3515c-0.147,0.8265 -0.1305,1.4265 -0.1365,2.2545c-0.3675,0.363 -0.1695,0.2985 -0.5865,0.3915c-0.0285,-1.518 -0.546,-2.6295 0,-4.056z" fill-opacity="0.00784" fill="#67cfea"/><path d="M204.039,201.624c0.417,-0.093 0.219,-0.0285 0.5865,-0.3915l-0.0225,0.153c-0.1365,0.9345 0.0285,1.2105 -0.2355,2.076c-0.459,-0.345 -0.246,-1.317 -0.3285,-1.8375z" fill-opacity="0.44314" fill="#67cfea"/><path d="M131.3835,123.32715l0.2337,0.00375c0.60435,-0.97635 0.41115,-0.77115 0.6795,-1.74225c0.31605,0.13605 0.48705,0.84525 0.42675,1.1913c-0.38865,0.4782 -0.4284,0.53985 -0.47715,1.15245l0.12165,0.0822l0.31995,-0.3381l0.09285,0.00405c0.1569,0.91155 -1.0566,5.39535 -1.10385,6.7176c-0.05925,1.65615 0.89385,2.66055 0.12915,3.91185c0.14505,0.6882 0.2358,0.79695 0.5823,1.4295l-0.16545,0.6168c0.6918,0.83115 0.52395,-0.10725 0.87435,0.60975c-0.5871,1.02015 -1.09935,1.6332 -1.66155,2.7816c-0.5301,1.11345 -0.9999,2.5794 -1.54395,3.65235c-2.04345,4.03005 -12.3303,14.397 -17.0331,11.817c-0.8049,-0.4485 -1.3902,-1.2075 -1.6188,-2.1c-0.15225,-0.615 -0.13785,-1.2585 0.04155,-1.866c0.73935,-2.5458 4.66485,-7.38765 6.50955,-9.51585c1.9062,-1.6425 3.0699,-2.92035 4.62195,-4.90575c3.41625,-4.3701 6.07875,-8.81175 8.9706,-13.50225z" fill="#7c7df9"/><path d="M132.57945,157.9155c0.78615,-0.2655 1.3968,-0.5235 2.22495,-0.573c0.66555,0.039 1.43625,0.0285 2.03775,0.2685c-0.46365,0.579 -2.29455,0.771 -2.64075,1.5465c0.1725,0.633 0.60165,1.728 0.4836,2.2635c-0.4191,-0.036 -0.4341,-0.177 -0.8301,-0.522c-0.43425,-0.609 -1.0017,-2.244 -1.27545,-2.9835z" fill="#7c7df9"/><path d="M204.6765,194.6715c1.1475,0.747 0.603,3.165 0.693,4.2855l-0.6075,0.021l-0.0345,-1.3515c0.234,-1.1805 0.3465,-1.98 -0.858,-2.598z" fill="#45a8c8"/><path d="M133.88775,195.411l0.5469,0.0645c0.43395,0.7155 0.20355,1.6275 0.09165,2.4555c-0.3099,-0.9735 -0.444,-1.5165 -0.63855,-2.52z" fill="#7c7df9"/><path d="M133.63125,137.4801c0.49005,-0.51705 0.21015,-0.4059 0.81075,-0.47115c0.42495,0.3033 0.28905,0.16845 0.4305,0.82665l-0.0696,0.1089c-0.41175,-0.1254 -0.77505,-0.2961 -1.17165,-0.4644z" fill="#7c7df9"/><path d="M204.942,184.977c0.654,-0.0705 0.7545,0.0045 1.197,0.339c0.3705,0.9195 -0.3195,2.634 -0.627,3.675c-0.3315,-0.387 -0.3675,-1.107 -0.453,-1.6425c1.17,-2.2095 0.2895,-1.2195 -0.117,-2.3715z" fill-opacity="0.05882" fill="#67cfea"/><path d="M198.372,128.99715l0.12,-0.2262l0.405,0.21315c0.3255,0.2784 0.249,0.10275 0.2925,0.50955c-0.7455,1.2504 -1.3335,2.61345 -2.7405,3.087l0.2175,-0.87615l0.189,0.1989l0.291,-0.07245c0.57,-0.75255 1.524,-1.8963 1.2255,-2.8338z" fill-opacity="0.74902" fill="#67cfea"/><path d="M198.372,128.99715c0.2985,0.9375 -0.6555,2.08125 -1.2255,2.8338l-0.291,0.07245l-0.189,-0.1989c0.393,-1.17285 0.933,-1.7841 1.7055,-2.70735z" fill-opacity="0.06275" fill="#67cfea"/><path d="M150.1365,140.56875l0.1815,0.04635c0.1845,1.0212 -0.82755,2.5506 -1.6842,3.07635l-0.0378,-0.2355c0.52665,-0.62595 1.06785,-1.44315 1.29135,-2.23365c-0.17085,-0.375 -0.2991,-0.31365 -0.8067,-0.53355c0.61605,-0.21885 0.0597,0.22515 1.05585,-0.12z" fill-opacity="0.31372" fill="#8a90f8"/><path d="M152.3475,133.77975c0.1845,0.4587 -0.6735,3.22695 -0.9165,3.80625c-0.1065,-0.1014 -0.1095,-0.17745 -0.1725,-0.3324c0.192,-1.1709 0.363,-2.5173 1.089,-3.47385z" fill-opacity="0.38039" fill="#8a90f8"/><path d="M151.8495,161.037c0.0555,-0.0075 0.0135,-0.0105 0.15,0.0675c-0.81,0.6465 -1.425,0.975 -2.44095,1.164c-0.1353,-0.066 -0.0585,-0.015 -0.1977,-0.195c0.71115,-0.651 1.56615,-0.8535 2.48865,-1.0365z" fill-opacity="0.19608" fill="#8a90f8"/><path d="M199.6785,128.19615c0.288,-0.6036 0.429,-1.05345 0.945,-1.46685l0.219,0.0366c0.0015,0.6273 -0.309,1.02135 -0.6795,1.5333z" fill-opacity="0.9098" fill="#67cfea"/><path d="M147.8658,147.12765l0.01455,0.1848l0.0777,-0.17535l0.03765,0.2085c-0.66405,1.0065 -0.7995,0.99285 -0.74355,2.16435l-0.22695,-0.1353c-0.5154,-0.99285 0.1548,-1.5903 0.8406,-2.247z" fill-opacity="0.78824" fill="#8a90f8"/><path d="M141.7854,187.998l0.28155,0.183c0.30795,0.5595 0.5397,2.0145 0.537,2.67l-0.25245,-0.222c-0.2229,-0.8895 -0.50775,-1.7175 -0.5661,-2.631z" fill-opacity="0.83922" fill="#8a90f8"/><path d="M142.3395,173.748l0.2274,0.1125c0.2061,0.339 0.06405,2.034 0.05685,2.589l-0.16755,0.018c-0.16245,-0.3225 -0.08085,-2.1045 -0.1167,-2.7195z" fill-opacity="0.80784" fill="#8a90f8"/><path d="M212.382,120.81795c0.3195,0.4242 0.33,1.8873 0.2955,2.41605c-0.501,-0.88785 -0.6135,-1.46865 -0.2955,-2.41605z" fill-opacity="0.85882" fill="#67cfea"/><path d="M204.762,181.7535l0.1245,0.084c0.111,0.444 -0.321,1.071 -0.5685,1.5885l-0.2655,-0.1275c-0.0225,-0.498 0.432,-1.086 0.7095,-1.545z" fill-opacity="0.6" fill="#67cfea"/><path d="M198.897,128.9841l0.7815,-0.78795l0.4845,0.10305l-0.9735,1.19445c-0.0435,-0.4068 0.033,-0.23115 -0.2925,-0.50955z" fill-opacity="0.63137" fill="#67cfea"/><path d="M141.82395,184.9365c0.3318,0.3375 0.2406,1.527 0.23745,2.0235l-0.2475,-0.246c-0.16905,-0.6435 -0.0621,-1.113 0.01005,-1.7775z" fill-opacity="0.75686" fill="#8a90f8"/><path d="M149.61975,118.473c0.29655,0.33435 0.32325,1.3509 0.39825,1.90305l-0.3504,-0.2991c-0.22215,-0.58305 -0.117,-0.96975 -0.04785,-1.60395z" fill-opacity="0.70588" fill="#8a90f8"/><path d="M207.4545,168.768l0.0675,0.129c-0.252,0.4275 -0.5415,0.453 -1.0755,0.7245l-0.135,-0.2025c0.225,-0.3645 0.675,-0.453 1.143,-0.651z" fill-opacity="0.83137" fill="#67cfea"/><path d="M100.90485,174.0675c-0.64575,-0.135 -1.086,-0.2595 -1.7505,-0.243c-0.51705,0.4245 -0.6954,0.7845 -1.2414,0.36c-0.02475,-0.2865 -0.07245,-0.5595 -0.09735,-0.8415c-0.0594,-0.6735 -1.18905,-0.906 -1.6746,-0.651c0.26355,0.6645 0.65805,0.6225 0.98205,1.266c-1.4745,-0.219 -3.2334,-1.218 -4.5741,-1.9095c-3.8637,-1.9905 -7.0173,-4.692 -8.35095,-8.9355c-2.19975,-6.999 0.345,-15.15045 3.64575,-21.4134c5.6349,-10.692 24.5463,-26.8629 36.08265,-30.32745c4.04715,-1.2153 7.7205,-0.2619 11.34585,1.6698l0.2244,0.56145l-0.1197,0.1932c-0.84435,-0.20895 -0.8991,-0.4062 -1.6623,-0.1965l-0.13095,0.33615c-0.44505,-0.0981 -0.89715,-0.3198 -1.25115,-0.2688l0.01515,0.2436l0.5313,0.40995l-0.06495,0.219c-0.41775,0.2004 -0.4143,0.17565 -0.88485,0.21255c-0.16905,0.32655 -0.1764,1.3812 -0.0231,1.49175c2.28135,1.64445 -0.4881,3.23925 0.33255,5.01555c-0.08595,0.04725 -0.1668,0.1152 -0.2637,0.13095c-2.1015,0.6087 -4.2663,1.0881 -6.2907,2.3265c-9.9177,6.1506 -19.80975,14.3745 -26.09175,24.2964c-1.94175,3.2343 -4.15065,8.7228 -3.10095,12.5463c1.97595,5.418 10.2552,6.081 14.54505,8.445c6.6243,3.6495 13.2045,5.352 15.96165,13.0905c3.2235,9.0465 -4.61895,14.1075 -12.1653,16.548c-2.93175,0.948 -10.1127,0.4995 -12.99705,-0.942c-2.53755,-1.365 -1.4154,-2.3295 -5.02815,-3.6c1.28475,1.161 1.4916,1.788 2.5407,3.081c0.4566,0.564 1.1088,0.633 1.57185,1.3665c-1.2783,0.249 -3.4941,-3.0105 -4.3857,-3.7725c-0.129,-0.1095 -1.2693,0.03 -1.55925,-0.0135c-1.22265,-0.183 -3.67455,-1.3425 -4.8204,-1.095l-0.0984,0.204c0.69585,0.912 1.70325,-0.168 2.59875,1.779l0.16035,0.1905l-0.24495,0.171c-0.8517,-0.1935 -3.27405,-0.9555 -3.8763,-1.542c-0.55485,-1.23 0.81855,-2.6895 0.8532,-4.056c0.0147,-0.579 0.38955,-1.3965 0.62745,-1.9575c1.6113,0.5265 3.41385,0.5655 4.5279,0.924c5.9916,1.923 8.4546,1.9905 14.30985,-0.222c2.2779,-0.915 5.67165,-1.8975 7.11285,-3.9975c0.39825,-0.579 -0.69915,-1.5495 -0.1245,-2.2335c0.3477,0.069 0.21825,0.0345 0.5433,0.132l0.22005,0.069l0.06465,-0.2325c-0.7098,-2.0295 -6.44085,-4.824 -8.382,-6.102c-1.01445,-0.6675 -5.4678,-1.692 -6.73005,-1.869zM117.65715,189.666c-0.52905,0.4245 -1.38225,1.215 -2.0508,0.864l0.11115,-0.315c0.54615,-0.498 0.97245,-0.591 1.6662,-0.843c0.3147,-0.3735 0.38235,-0.3015 0.3882,-0.627c-0.9093,0.1215 -5.5692,2.9055 -7.16475,2.4405c-0.43935,-0.1275 -0.9339,-0.0075 -1.38105,0.1215c-2.90145,0.8385 -6.56685,0.768 -9.4155,1.74l-0.09975,0.2355c1.11375,1.047 4.3647,1.452 5.8509,1.3455c5.02485,-0.357 10.8135,-2.9745 14.60325,-6.183c-0.91485,0.3495 -1.76475,0.588 -2.50785,1.221zM117.73095,180.141c0.6885,0.993 1.9302,2.64 2.4168,3.6315c0.11025,0.024 0.2946,0.072 0.3984,0.075c0.24975,-1.1865 -0.59415,-3.1125 -1.88205,-3.585c-0.19575,-0.072 -0.71115,-0.102 -0.93315,-0.1215zM123.0891,123.7002c0.35235,-0.22935 3.13125,-2.7675 3.25515,-3.14385l-0.1107,-0.11415c-1.2012,0.6867 -2.9481,1.4943 -3.35865,2.85855c0.0771,0.1689 0.09915,0.26475 0.2142,0.39945zM112.48065,123.60825c0.4941,-0.29265 1.164,-0.60855 1.4649,-1.0668c-0.25635,-0.37515 -0.56205,-0.3063 -1.01925,-0.306c-0.5226,0.3171 -1.06155,0.70035 -1.08975,1.3695c0.3288,0.1875 0.1422,0.1272 0.6441,0.0033zM115.5177,178.3515c0.21975,0.672 0.744,0.8115 1.37715,1.0485c-0.2673,-0.642 -0.7563,-0.831 -1.37715,-1.0485zM117.903,117.62145c-0.89295,0.3108 -1.5381,0.56205 -2.11635,1.32885l0.0027,0.31035l0.13605,0.1038l0.1392,-0.11835c0.5214,-0.43725 1.7427,-1.15605 1.9041,-1.52385zM99.93285,135.00735c0.47565,-0.4995 1.73295,-1.75665 2.02905,-2.26755c-0.09735,-0.2853 -0.02655,-0.1959 -0.1362,-0.31335c-0.52815,0.5466 -1.93905,1.8072 -1.9824,2.48955zM116.13315,181.155c0.3486,0.432 0.9756,1.1745 1.53045,1.269c-0.21645,-0.864 -0.57855,-1.2765 -1.53045,-1.269zM109.9113,125.99985c-0.6015,0.65085 -1.21485,1.46895 -1.74315,2.1885c0.12045,0.21615 0.03795,0.135 0.2397,0.2514c0.50835,-0.5175 1.36665,-1.61355 1.60275,-2.3064zM93.9183,192.1605c0.32565,0.753 0.91935,0.924 1.6827,1.092c-0.32685,-0.828 -0.81255,-1.0605 -1.6827,-1.092z" fill="url(#color-2)"/><path d="M120.165,188.445c-3.78975,3.2085 -9.5784,5.826 -14.60325,6.183c-1.4862,0.1065 -4.73715,-0.2985 -5.8509,-1.3455l0.09975,-0.2355c2.84865,-0.972 6.51405,-0.9015 9.4155,-1.74c0.44715,-0.129 0.9417,-0.249 1.38105,-0.1215c1.59555,0.465 6.25545,-2.319 7.16475,-2.4405c-0.00585,0.3255 -0.0735,0.2535 -0.3882,0.627c-0.69375,0.252 -1.12005,0.345 -1.6662,0.843l-0.11115,0.315c0.66855,0.351 1.52175,-0.4395 2.0508,-0.864c0.7431,-0.633 1.593,-0.8715 2.50785,-1.221z" fill-opacity="0.00784" fill="#8a90f8"/><path d="M105.37755,193.4325c0.40275,-0.1785 0.96885,-0.243 1.4751,-0.4395c1.24335,-0.4815 2.3898,-1.143 3.67605,-1.476l0.1926,0.174c-0.10965,0.5115 -0.12585,0.669 -0.36135,1.152c-0.7308,0.435 -4.0518,0.9225 -4.9761,0.969z" fill="#7c7df9"/><path d="M105.38385,193.812c-1.0563,-0.0165 -3.17505,0.237 -3.84075,-0.48c0.8856,-0.843 2.85825,-0.255 3.83445,0.1005z" fill="#7f69f7"/><path d="M110.7213,191.691c0.91365,1.0665 3.0183,-0.99 4.1901,-1.002l0.05055,0.2595c-0.84165,0.8205 -3.43815,1.605 -4.602,1.8945c0.2355,-0.483 0.2517,-0.6405 0.36135,-1.152z" fill="#7c7df9"/><path d="M126.23355,120.4422l0.1107,0.11415c-0.1239,0.37635 -2.9028,2.9145 -3.25515,3.14385c-0.11505,-0.1347 -0.1371,-0.23055 -0.2142,-0.39945c0.41055,-1.36425 2.15745,-2.17185 3.35865,-2.85855z" fill-opacity="0.04314" fill="#7c7df9"/><path d="M117.3837,189.372l0.27345,0.294c-0.52905,0.4245 -1.38225,1.215 -2.0508,0.864l0.11115,-0.315c0.54615,-0.498 0.97245,-0.591 1.6662,-0.843z" fill="#7c7df9"/><path d="M101.8257,132.42645c0.10965,0.11745 0.03885,0.02805 0.1362,0.31335c-0.2961,0.5109 -1.5534,1.76805 -2.02905,2.26755l-0.08955,-0.09135c0.04335,-0.68235 1.45425,-1.94295 1.9824,-2.48955z" fill-opacity="0.82353" fill="#7f69f7"/><path d="M117.903,117.62145l0.0657,0.1008c-0.1614,0.3678 -1.3827,1.0866 -1.9041,1.52385l-0.1392,0.11835l-0.13605,-0.1038l-0.0027,-0.31035c0.57825,-0.7668 1.2234,-1.01805 2.11635,-1.32885z" fill-opacity="0.04706" fill="#7c7df9"/><path d="M109.9113,125.99985l0.0993,0.1335c-0.2361,0.69285 -1.0944,1.7889 -1.60275,2.3064c-0.20175,-0.1164 -0.11925,-0.03525 -0.2397,-0.2514c0.5283,-0.71955 1.14165,-1.53765 1.74315,-2.1885z" fill-opacity="0.76863" fill="#7f69f7"/><path d="M93.9183,192.1605c0.87015,0.0315 1.35585,0.264 1.6827,1.092c-0.76335,-0.168 -1.35705,-0.339 -1.6827,-1.092z" fill-opacity="0.03529" fill="#7f69f7"/><path d="M116.13315,181.155c0.9519,-0.0075 1.314,0.405 1.53045,1.269c-0.55485,-0.0945 -1.18185,-0.837 -1.53045,-1.269z" fill-opacity="0.23529" fill="#7c7df9"/><path d="M115.5177,178.3515c0.62085,0.2175 1.10985,0.4065 1.37715,1.0485c-0.63315,-0.237 -1.1574,-0.3765 -1.37715,-1.0485z" fill-opacity="0.46275" fill="#7c7df9"/><path d="M153.3375,113.31585c0.9525,0.8799 0.7695,1.3932 1.824,2.2071l0.324,0.0822c-0.132,0.4782 -0.1425,0.71415 -0.513,1.03935c-0.6015,-0.432 0.0285,-0.65775 -0.7365,-1.2537l-0.1905,0.08895c0.1245,0.4404 0.249,0.77775 0.4065,1.2024c-0.2265,0.2724 -0.12,0.19755 -0.426,0.35625l-0.3285,0.08205c-0.1845,0.7605 -0.201,1.7262 -0.297,2.5383c-0.942,-0.95865 -0.432,-2.95875 -0.3825,-4.1859l0.0105,-0.27255c0.3225,0.25065 -0.099,0.62925 0.192,1.3623c0.4395,0.2046 0.219,0.17865 0.6825,0.0993l0.105,-0.2658c-0.2355,-0.86265 -0.3375,-2.21805 -0.744,-2.82555z" fill-opacity="0.98824" fill="#8a90f8"/><path d="M92.6553,195.651c0.3978,-0.2985 0.6012,-0.534 1.0872,-0.522c1.9161,0.834 1.8726,2.631 3.8751,1.749l0.08865,0.108c-1.59285,1.2795 -3.153,-0.642 -5.13555,-0.9735l0.24495,-0.171z" fill="#7f69f7"/><path d="M155.4855,115.60515c0.261,-0.25515 0.375,-0.4284 0.7185,-0.5205l0.132,0.19935c-0.2475,0.73905 -0.828,1.7802 -1.245,2.44515c-0.426,-0.3486 -0.2895,-0.7128 -0.639,-1.047c-0.1575,-0.42465 -0.282,-0.762 -0.4065,-1.2024l0.1905,-0.08895c0.765,0.59595 0.135,0.8217 0.7365,1.2537c0.3705,-0.3252 0.381,-0.56115 0.513,-1.03935z" fill-opacity="0.02745" fill="#8a90f8"/><path d="M207.7755,187.0695c-0.0015,0.3675 0.021,0.8205 -0.0435,1.17c-0.111,-0.2595 -0.1305,-0.2505 -0.303,-0.483l-0.213,0.048c-0.1005,0.45 -0.2145,0.8985 -0.342,1.341l-0.2115,0.0645c-0.3495,-0.4245 -0.339,-0.387 -0.414,-0.9285c0.1125,-0.477 0.327,-0.6135 0.6795,-0.957c0.315,-0.063 0.549,-0.1335 0.8475,-0.255z" fill-opacity="0.19216" fill="#67cfea"/><path d="M153.4005,119.65875c0.096,-0.8121 0.1125,-1.7778 0.297,-2.5383l0.3285,-0.08205c0.2835,0.71235 0.273,2.04195 -0.237,2.6643l-0.3135,0.0231z" fill-opacity="0.00784" fill="#8a90f8"/></g></svg></svg>